<?xml version="1.0" encoding="UTF-8" standalone="no"?>
<!DOCTYPE svg PUBLIC "-//W3C//DTD SVG 1.1//EN" "http://www.w3.org/Graphics/SVG/1.1/DTD/svg11.dtd">
<svg width="100%" height="100%" viewBox="0 0 300 300" version="1.1" xmlns="http://www.w3.org/2000/svg" xmlns:xlink="http://www.w3.org/1999/xlink" xml:space="preserve" xmlns:serif="http://www.serif.com/" style="fill-rule:evenodd;clip-rule:evenodd;stroke-linejoin:round;stroke-miterlimit:2;">
    <g transform="matrix(1.38882,0,0,1.38882,-58.3237,-58.3237)">
        <path d="M150,120C166.458,120 180,133.542 180,150C180,166.458 166.458,180 150,180C133.542,180 120,166.458 120,150C120,133.542 133.542,120 150,120ZM180,150C180,133.542 193.542,120 210,120C226.458,120 240,133.542 240,150C240,166.458 226.458,180 210,180C193.542,180 180,166.458 180,150M90,120C73.542,120 60,133.542 60,150C60,166.458 73.542,180 90,180C106.458,180 120,166.458 120,150C120,133.542 106.458,120 90,120M60,120L120,120C120,87.085 92.915,60 60,60L60,120M180,120L240,120L240,60C207.085,60 180,87.085 180,120M60,180L60,240C92.915,240 120,212.915 120,180L60,180M240,180L180,180C180,212.915 207.085,240 240,240L240,180M120,180L180,180L180,240C163.542,240 150,233.229 150,225C150,233.229 136.458,240 120,240L120,180M120,120L120,60C136.458,60 150,66.771 150,75C150,66.771 163.542,60 180,60L180,120L120,120" style="fill:white;fill-rule:nonzero;"/>
    </g>
</svg>
