<?xml version="1.0" encoding="UTF-8" standalone="no"?>
<!DOCTYPE svg PUBLIC "-//W3C//DTD SVG 1.1//EN" "http://www.w3.org/Graphics/SVG/1.1/DTD/svg11.dtd">
<svg width="100%" height="100%" viewBox="0 0 240 66" version="1.1" xmlns="http://www.w3.org/2000/svg" xmlns:xlink="http://www.w3.org/1999/xlink" xml:space="preserve" xmlns:serif="http://www.serif.com/">
<symbol id="logo-symbol-wordmark">
    <g transform="matrix(0.340136,0,0,0.340136,-18.027,-18.014)">
        <g id="Layer1">
            <path d="M150,120C166.458,120 180,133.542 180,150C180,166.458 166.458,180 150,180C133.542,180 120,166.458 120,150C120,133.542 133.542,120 150,120ZM180,150C180,133.542 193.542,120 210,120C226.458,120 240,133.542 240,150C240,166.458 226.458,180 210,180C193.542,180 180,166.458 180,150M90,120C73.542,120 60,133.542 60,150C60,166.458 73.542,180 90,180C106.458,180 120,166.458 120,150C120,133.542 106.458,120 90,120M60,120L120,120C120,87.085 92.915,60 60,60L60,120M180,120L240,120L240,60C207.085,60 180,87.085 180,120M60,180L60,240C92.915,240 120,212.915 120,180L60,180M240,180L180,180C180,212.915 207.085,240 240,240L240,180M120,180L180,180L180,240C163.542,240 150,233.229 150,225C150,233.229 136.458,240 120,240L120,180M120,120L120,60C136.458,60 150,66.771 150,75C150,66.771 163.542,60 180,60L180,120L120,120" fill="currentColor"/>
        </g>
    </g>
    <g transform="matrix(1.16191,0,0,1.16191,-15.0917,-9.81156)">
        <path d="M88.614,45.746L88.614,27.946L85.189,27.946L80.564,37.571L75.914,27.946L72.489,27.946L72.489,45.746L75.964,45.746L75.964,35.371L79.389,42.121L81.739,42.121L85.139,35.371L85.139,45.746L88.614,45.746Z" fill="currentColor"/>
        <path d="M104.489,45.746L104.489,42.646L96.239,42.646L96.239,38.321L103.264,38.321L103.264,35.221L96.239,35.221L96.239,31.046L104.489,31.046L104.489,27.946L92.764,27.946L92.764,45.746L104.489,45.746Z" fill="currentColor"/>
        <path d="M121.364,45.746L117.389,38.071C119.114,37.446 120.639,35.896 120.639,33.396C120.639,30.421 118.489,27.946 114.864,27.946L107.889,27.946L107.889,45.746L111.364,45.746L111.364,38.646L113.864,38.646L117.339,45.746L121.364,45.746ZM117.164,33.396C117.164,34.771 116.164,35.746 114.639,35.746L111.364,35.746L111.364,31.046L114.639,31.046C116.164,31.046 117.164,32.021 117.164,33.396Z" fill="currentColor"/>
        <path d="M136.614,27.946L132.989,27.946L129.414,39.546L125.839,27.946L122.239,27.946L128.114,45.746L130.714,45.746L136.614,27.946Z" fill="currentColor"/>
        <path d="M150.489,45.746L150.489,42.646L142.239,42.646L142.239,38.321L149.264,38.321L149.264,35.221L142.239,35.221L142.239,31.046L150.489,31.046L150.489,27.946L138.764,27.946L138.764,45.746L150.489,45.746Z" fill="currentColor"/>
        <rect x="153.889" y="27.946" width="3.475" height="17.8" fill="currentColor"/>
        <path d="M173.064,45.746L173.064,42.646L164.989,42.646L164.989,27.946L161.514,27.946L161.514,45.746L173.064,45.746Z" fill="currentColor"/>
        <path d="M187.439,45.746L187.439,42.646L179.364,42.646L179.364,27.946L175.889,27.946L175.889,45.746L187.439,45.746Z" fill="currentColor"/>
        <path d="M201.989,45.746L201.989,42.646L193.739,42.646L193.739,38.321L200.764,38.321L200.764,35.221L193.739,35.221L193.739,31.046L201.989,31.046L201.989,27.946L190.264,27.946L190.264,45.746L201.989,45.746Z" fill="currentColor"/>
        <path d="M216.889,40.496C216.889,38.921 216.464,37.621 215.514,36.721C214.764,36.021 213.739,35.571 212.114,35.346L210.014,35.046C209.289,34.946 208.714,34.671 208.364,34.346C207.989,33.996 207.839,33.521 207.839,33.071C207.839,31.846 208.739,30.821 210.589,30.821C211.764,30.821 213.114,30.971 214.239,32.046L216.439,29.871C214.914,28.396 213.139,27.796 210.689,27.796C206.839,27.796 204.489,30.021 204.489,33.196C204.489,34.696 204.914,35.846 205.764,36.696C206.564,37.471 207.689,37.946 209.214,38.171L211.364,38.471C212.189,38.596 212.589,38.771 212.939,39.096C213.314,39.446 213.489,39.971 213.489,40.596C213.489,42.021 212.389,42.796 210.339,42.796C208.689,42.796 207.164,42.421 206.039,41.296L203.789,43.546C205.539,45.321 207.589,45.896 210.289,45.896C214.014,45.896 216.889,43.946 216.889,40.496Z" fill="currentColor"/>
    </g></symbol><use xlink:href="#logo-symbol-wordmark" style="color:#fff"/>
</svg>
